HIERARCHY
ROOT Hips
{
	OFFSET 0.00000 0.00000 0.00000
	CHANNELS 6 Xposition Yposition Zposition Zrotation Yrotation Xrotation 
	JOINT LHipJoint
	{
		OFFSET 0 0 0
		CHANNELS 3 Zrotation Yrotation Xrotation
		JOINT LeftHip
		{
			OFFSET 1.59801 -1.77853 0.57028
			CHANNELS 3 Zrotation Yrotation Xrotation
			JOINT LeftKnee
			{
				OFFSET 2.39439 -6.57854 0.00000
				CHANNELS 3 Zrotation Yrotation Xrotation
				JOINT LeftAnkle
				{
					OFFSET 2.69334 -7.39989 0.00000
					CHANNELS 3 Zrotation Yrotation Xrotation
					JOINT LeftToe
					{
						OFFSET 0.09553 -0.26245 1.73747
						CHANNELS 3 Zrotation Yrotation Xrotation
						End Site
						{
							OFFSET 0.00000 -0.00000 0.89391
						}
					}
				}
			}
		}
	}
	JOINT RHipJoint
	{
		OFFSET 0 0 0
		CHANNELS 3 Zrotation Yrotation Xrotation
		JOINT RightHip
		{
			OFFSET -1.54704 -1.77852 0.57028
			CHANNELS 3 Zrotation Yrotation Xrotation
			JOINT RightKnee
			{
				OFFSET -2.40286 -6.60180 0.00000
				CHANNELS 3 Zrotation Yrotation Xrotation
				JOINT RightAnkle
				{
					OFFSET -2.63873 -7.24984 0.00000
					CHANNELS 3 Zrotation Yrotation Xrotation
					JOINT RightToe
					{
						OFFSET -0.15631 -0.42945 1.84436
						CHANNELS 3 Zrotation Yrotation Xrotation
						End Site
						{
							OFFSET -0.00000 -0.00000 0.95734
						}
					}
				}
			}
		}
	}
	JOINT lowerback
	{
		OFFSET 0 0 0
		CHANNELS 3 Zrotation Yrotation Xrotation
		JOINT Chest
		{
			OFFSET -0.00436 1.89866 -0.04018
			CHANNELS 3 Zrotation Yrotation Xrotation
			JOINT Chest2
			{
				OFFSET 0.02031 1.88273 0.09634
				CHANNELS 3 Zrotation Yrotation Xrotation
				JOINT lowerneck
				{
					OFFSET 0 0 0
					CHANNELS 3 Zrotation Yrotation Xrotation
					JOINT Neck
					{
						OFFSET -0.13105 1.89371 0.23083
						CHANNELS 3 Zrotation Yrotation Xrotation
						JOINT Head
						{
							OFFSET 0.17062 1.83990 -0.54062
							CHANNELS 3 Zrotation Yrotation Xrotation
							End Site
							{
								OFFSET 0.04576 1.94782 -0.21839
							}
						}
					}
				}
				JOINT LeftCollar
				{
					OFFSET 0 0 0
					CHANNELS 3 Zrotation Yrotation Xrotation
					JOINT LeftShoulder
					{
						OFFSET 3.12424 1.09204 0.22226
CHANNELS 3 Zrotation Xrotation Yrotation
						JOINT LeftElbow
						{
OFFSET 0 -5.292770 0.000000
CHANNELS 3 Zrotation Xrotation Yrotation
							JOINT LeftWrist
							{
OFFSET 0 -2.852260 0.000000
CHANNELS 3 Zrotation Xrotation Yrotation
								JOINT lhand
								{
									OFFSET 0 0 0
CHANNELS 3 Zrotation Xrotation Yrotation
									JOINT LFingers
									{
OFFSET 0 -0.602100 0.000000
CHANNELS 3 Zrotation Xrotation Yrotation
										End Site
										{
OFFSET 0 -0.485430 0.000000
										}
									}
								}
								JOINT LThumb
								{
OFFSET 0 0.000000 0.000000
CHANNELS 3 Zrotation Xrotation Yrotation
									End Site
									{
OFFSET 0 -0.492840 0.492840
									}
								}
							}
						}
					}
				}
				JOINT RightCollar
				{
					OFFSET 0 0 0
					CHANNELS 3 Zrotation Yrotation Xrotation
					JOINT RightShoulder
					{
						OFFSET -2.91709 1.01504 0.30199
CHANNELS 3 Zrotation Xrotation Yrotation
						JOINT RightElbow
						{
OFFSET 0 -5.133040 0.000000
CHANNELS 3 Zrotation Xrotation Yrotation
							JOINT RightWrist
							{
OFFSET 0 -2.743050 0.000000
CHANNELS 3 Zrotation Xrotation Yrotation
								JOINT rhand
								{
									OFFSET 0 0 0
CHANNELS 3 Zrotation Xrotation Yrotation
									JOINT RFingers
									{
OFFSET 0 -0.767980 0.000000
CHANNELS 3 Zrotation Xrotation Yrotation
										End Site
										{
OFFSET 0 -0.619160 0.000000
										}
									}
								}
								JOINT RThumb
								{
OFFSET 0 0.000000 0.000000
CHANNELS 3 Zrotation Xrotation Yrotation
									End Site
									{
OFFSET 0 -0.628620 0.628620
									}
								}
							}
						}
					}
				}
			}
		}
	}
}
MOTION
Frames: 7
Frame Time: 0.008333333333333333
1.588650 16.952909 -1.065067 6.008273 -6.022025 17.147745 0.000000 0.000000 0.000000 -26.589770 -14.060455 -30.229461 2.930199 10.581146 30.880090 0.766510 -2.419468 -15.897726 0.307439 -3.564919 -9.855674 0.000000 0.000000 0.000000 0.628766 16.729649 -32.446378 -3.586747 -11.589240 34.293810 -0.918103 -3.603439 -19.745623 -2.366590 9.591135 -27.662639 9.189379 0.047060 22.704060 10.608954 2.606355 7.767462 5.733076 1.193750 -4.186379 -12.734655 -7.217178 -7.644093 15.238272 -8.871370 -1.319149 6.276427 -4.152329 2.166309 0.000000 0.000000 0.000000 68.383715 16.497649 -54.119180 25.856764 -37.066883 8.801154 22.110090 -56.905472 -32.625293 0.000000 0.000000 0.000000 -7.125000 0.000000 0.000000 -12.742399 64.189924 5.970509 0.000000 0.000000 0.000000 -56.508765 -1.881207 -57.394463 -31.126810 -41.839743 -12.154355 -48.762043 -15.423830 13.219808 0.000000 0.000000 0.000000 7.125000 0.000000 0.000000 -21.108666 48.401312 1.847190
1.646271 16.987431 -1.019132 6.233342 -7.755912 17.492225 0.000000 0.000000 0.000000 -27.259841 -13.465242 -30.122367 2.747909 10.275209 29.872682 0.771702 -1.689136 -16.110347 0.269079 -3.336148 -9.216241 0.000000 0.000000 0.000000 -0.302302 17.835341 -32.417521 -3.387611 -11.297428 33.289912 -0.867558 -3.475616 -19.182119 -2.520323 9.874704 -28.571851 9.447593 -0.086752 22.336110 10.013997 2.313502 8.152333 4.986481 1.068560 -3.521123 -12.525256 -7.110578 -7.380753 15.726471 -8.685471 -2.416957 6.433915 -4.084022 1.797973 0.000000 0.000000 0.000000 69.095120 16.158298 -53.496175 25.242156 -36.450432 8.433354 20.963374 -56.646009 -32.557754 0.000000 0.000000 0.000000 -7.125000 0.000000 0.000000 -14.033331 63.813573 6.463357 0.000000 0.000000 0.000000 -54.978386 -1.412759 -57.869337 -30.904652 -41.656291 -12.006409 -48.165990 -14.035249 13.624229 0.000000 0.000000 0.000000 7.125000 0.000000 0.000000 -20.597179 48.809876 2.013803
1.694012 17.021466 -0.980020 5.740940 -9.321200 17.943093 0.000000 0.000000 0.000000 -27.012884 -12.931269 -30.405155 2.664088 10.130236 29.399586 0.777123 -0.874489 -16.384227 0.293490 -3.482449 -9.625035 0.000000 0.000000 0.000000 -0.420264 19.193834 -32.205001 -3.126735 -10.897390 31.934799 -0.802648 -3.509872 -18.548381 -2.462547 9.769074 -28.232416 9.445025 -0.210013 22.555263 10.075895 2.182370 8.100761 5.094567 0.990479 -3.687209 -12.365543 -7.103921 -7.342793 15.146976 -8.699626 -2.245241 6.223437 -4.099937 1.801981 0.000000 0.000000 0.000000 68.866958 16.266135 -52.907124 24.510579 -35.699419 8.002576 20.546895 -55.504664 -32.443663 0.000000 0.000000 0.000000 -7.125000 0.000000 0.000000 -14.423788 63.591019 6.571896 0.000000 0.000000 0.000000 -54.508472 -0.685865 -56.966383 -30.849269 -41.610266 -11.969638 -48.751387 -14.032909 13.614494 0.000000 0.000000 0.000000 7.125000 0.000000 0.000000 -21.227617 48.932524 2.147459
1.738217 17.039420 -0.951732 5.755422 -10.610456 18.351651 0.000000 0.000000 0.000000 -27.282405 -12.725964 -30.652132 2.590575 10.000747 28.979164 0.777728 -0.165123 -16.613892 0.301549 -3.530915 -9.760633 0.000000 0.000000 0.000000 -1.138665 20.312279 -32.212112 -2.963993 -10.636564 31.063853 -0.724707 -3.640349 -17.806805 -2.245420 9.359540 -26.926532 9.304677 -0.317557 22.706946 9.811868 1.995844 8.198479 4.925570 0.897260 -3.647453 -12.017434 -7.323344 -7.895858 15.165223 -8.964689 -2.370154 6.136657 -4.217682 1.877445 0.000000 0.000000 0.000000 68.961632 15.651582 -52.396702 23.873459 -35.030098 7.633758 19.809551 -55.005446 -32.616916 0.000000 0.000000 0.000000 -7.125000 0.000000 0.000000 -15.415817 63.562282 7.023976 0.000000 0.000000 0.000000 -53.533426 0.332303 -57.133168 -30.609923 -41.410468 -11.810965 -47.912265 -13.470584 13.816552 0.000000 0.000000 0.000000 7.125000 0.000000 0.000000 -20.382454 49.009062 2.094529
1.774833 17.057311 -0.933869 5.378563 -11.809491 18.909550 0.000000 0.000000 0.000000 -27.044940 -12.560706 -31.156212 2.547900 9.924480 28.732611 0.773008 0.384677 -16.758710 0.229586 -3.083814 -8.512210 0.000000 0.000000 0.000000 -1.395566 21.390556 -32.404410 -2.787799 -10.343372 30.096020 -0.658598 -3.855451 -17.212394 -2.326973 9.516243 -27.423977 8.885326 -0.701943 22.870964 10.016331 1.461529 8.064306 5.537872 0.618674 -3.884998 -13.212115 -7.265868 -7.039436 15.209646 -8.861340 -2.619071 6.384815 -4.196504 1.706232 0.000000 0.000000 0.000000 67.787870 16.213376 -51.531513 23.060510 -34.154652 7.172345 19.032844 -53.004328 -32.811690 0.000000 0.000000 0.000000 -7.125000 0.000000 0.000000 -16.469078 63.542628 7.509156 0.000000 0.000000 0.000000 -53.774699 0.701875 -56.298416 -30.278226 -41.130671 -11.592185 -47.051802 -13.360683 13.742724 0.000000 0.000000 0.000000 7.125000 0.000000 0.000000 -19.436769 48.716169 1.845760
1.806970 17.072813 -0.910372 5.707942 -13.131830 19.242460 0.000000 0.000000 0.000000 -27.634052 -12.441419 -31.205312 2.427522 9.704935 28.026428 0.752259 1.371035 -16.936001 0.334936 -3.718406 -10.285822 0.000000 0.000000 0.000000 -2.414164 22.243414 -32.712767 -2.681991 -10.161463 29.501150 -0.634440 -3.890462 -16.961549 -2.372034 9.601442 -27.695421 8.154852 -0.843418 23.203086 9.584922 1.138122 8.079389 5.556430 0.455027 -4.039400 -13.301145 -7.235091 -6.177972 15.526161 -8.832659 -3.585378 6.545587 -4.227294 1.304498 0.000000 0.000000 0.000000 67.831777 15.693426 -51.418286 22.631198 -33.683059 6.932648 18.596973 -52.261075 -33.126987 0.000000 0.000000 0.000000 -7.125000 0.000000 0.000000 -17.239688 63.726934 7.945103 0.000000 0.000000 0.000000 -52.990342 1.614297 -55.882843 -30.044785 -40.931756 -11.438964 -46.400692 -13.568080 13.485135 0.000000 0.000000 0.000000 7.125000 0.000000 0.000000 -18.678158 48.233121 1.539733
1.828144 17.086711 -0.905915 5.624127 -14.280683 19.854684 0.000000 0.000000 0.000000 -27.620928 -12.375925 -31.804490 2.379196 9.614792 27.738209 0.741480 1.932005 -17.076545 0.299263 -3.517513 -9.722910 0.000000 0.000000 0.000000 -3.078538 23.307020 -33.206025 -2.558106 -9.942804 28.791888 -0.587094 -4.110414 -16.554516 -2.325291 9.513114 -27.414162 7.533766 -1.063170 23.438635 9.279327 0.726079 8.101650 5.681507 0.248422 -4.126877 -14.059910 -7.309130 -5.248103 16.500405 -8.891896 -4.859118 7.029364 -4.303624 0.887250 0.000000 0.000000 0.000000 67.324663 15.780154 -50.414378 22.142168 -33.137378 6.663441 18.094237 -50.554658 -33.161115 0.000000 0.000000 0.000000 -7.125000 0.000000 0.000000 -17.840413 63.625185 8.188361 0.000000 0.000000 0.000000 -52.348298 2.104177 -55.407210 -29.903861 -40.810795 -11.346704 -46.109514 -13.579453 13.465169 0.000000 0.000000 0.000000 7.125000 0.000000 0.000000 -18.367440 48.144900 1.471411
